# xmcd CD database file
#
# Track frame offsets:
#	151
#	62568
#	104397
#	159587
#	211916
#	283132
#
# Disc length: 4484 seconds
#
# Revision: 0
# Processed by: cddbd v1.5.2PL0 Copyright (c) Steve Scherf et al.
# Submitted via: CDex 1.51
#
DISCID=52118206
DTITLE=Nik Bärtsch's Ronin - Live
DYEAR=2003
DGENRE=Jazz
TTITLE0=Modul 14
TTITLE1=Modul 17
TTITLE2=Modul 11
TTITLE3=Modul 16
TTITLE4=Modul 8_9
TTITLE5=Modul 15
EXTD=YEAR: 2003
EXTT0=
EXTT1=
EXTT2=
EXTT3=
EXTT4=
EXTT5=
PLAYORDER=
